<?xml version="1.0" encoding="UTF-8"?><svg id="Layer_2" xmlns="http://www.w3.org/2000/svg" width="716.36" height="73.23" viewBox="0 0 716.36 73.23"><g id="Layer_1-2"><path d="M123.42,47.21L142.22,1.01h10.03s18.82,46.2,18.82,46.2h-11.62s-4.16-11.15-4.16-11.15h-16.1s-4.16,11.16-4.16,11.16h-11.62ZM145.32,19.42l-2.77,7.52h9.37s-2.77-7.53-2.77-7.53l-.66-1.72c-.4-.92-.81-2.18-1.25-3.76-.09.31-.22.74-.4,1.29-.18.55-.33,1.02-.46,1.42-.13.4-.26.75-.4,1.06l-.66,1.72Z" style="fill:#1a1a1a; stroke-width:0px;"/><path d="M174.5,47.2V1s10.68,0,10.68,0v46.2s-10.68,0-10.68,0Z" style="fill:#1a1a1a; stroke-width:0px;"/><path d="M193.77,47.2V1s14.91,0,14.91,0c7.7,0,13.92,1.97,18.65,5.9,4.73,3.94,7.1,9.67,7.1,17.19s-2.36,13.26-7.09,17.19c-4.73,3.94-10.94,5.91-18.64,5.91h-14.92ZM204.46,37.56h5.21c4.4,0,7.84-1.17,10.33-3.5,2.49-2.33,3.73-5.65,3.73-9.97,0-4.31-1.25-7.63-3.73-9.97-2.49-2.33-5.93-3.5-10.33-3.5h-5.21s0,26.93,0,26.93Z" style="fill:#1a1a1a; stroke-width:0px;"/><path d="M241.03,47.19V.99s33.72,0,33.72,0v9.37s-23.03,0-23.03,0v8.38s21.19,0,21.19,0v9.11s-21.18,0-21.18,0v9.97s23.23,0,23.23,0v9.37s-33.92,0-33.92,0Z" style="fill:#1a1a1a; stroke-width:0px;"/><path d="M281.55,47.18V.98s10.68,0,10.68,0l16.9,26.2c.09.13.37.62.86,1.45.48.79.86,1.52,1.12,2.18V.98s10.42,0,10.42,0v46.2s-10.68,0-10.68,0l-16.9-26.4c-.09-.13-.38-.62-.86-1.45-.57-.97-.95-1.69-1.12-2.18v30.03s-10.42,0-10.42,0Z" style="fill:#1a1a1a; stroke-width:0px;"/><path d="M383.45,29.41l8.65,6.2c-2.68,4.31-5.69,7.47-9.01,9.47-3.32,2-7.42,3-12.31,3-7.04,0-12.8-2.21-17.29-6.63-4.49-4.42-6.73-10.22-6.73-17.39,0-7.13,2.3-12.91,6.89-17.36,4.6-4.44,10.39-6.67,17.39-6.67,4.93,0,9.2,1.11,12.8,3.33,3.61,2.22,6.23,5.16,7.86,8.81l-8.91,6.21c-2.73-5.63-6.76-8.45-12.08-8.45-3.7,0-6.83,1.3-9.4,3.9-2.57,2.6-3.86,6.01-3.86,10.23,0,4.14,1.29,7.52,3.86,10.16,2.57,2.64,5.73,3.96,9.47,3.96,2.86,0,5.28-.73,7.26-2.18,1.98-1.45,3.78-3.65,5.41-6.6Z" style="fill:#1a1a1a; stroke-width:0px;"/><path d="M397.78,47.16V.96s10.68,0,10.68,0v17.69s17.82,0,17.82,0V.96s10.69,0,10.69,0v46.2s-10.68,0-10.68,0v-18.61s-17.82,0-17.82,0v18.61s-10.69,0-10.69,0Z" style="fill:#1a1a1a; stroke-width:0px;"/><path d="M445.56,47.15V.95s33.72,0,33.72,0v9.37s-23.03,0-23.03,0v8.38s21.19,0,21.19,0v9.11s-21.18,0-21.18,0v9.97s23.23,0,23.23,0v9.37s-33.92,0-33.92,0Z" style="fill:#1a1a1a; stroke-width:0px;"/><path d="M512.81,47.14l-10.3-18.21h-5.74s0,18.22,0,18.22h-10.69s0-46.2,0-46.2h20.13c5.54,0,9.81,1.17,12.81,3.53,2.99,2.35,4.49,5.71,4.49,10.06,0,3.34-.86,6.07-2.57,8.18-1.72,2.11-4.2,3.87-7.46,5.28l10.83,19.14h-11.48ZM496.77,9.66v10.56s10.5,0,10.5,0c3.92,0,5.87-1.76,5.87-5.28,0-3.52-1.96-5.28-5.88-5.28h-10.49Z" style="fill:#1a1a1a; stroke-width:0px;"/><path d="M529.51,47.14V.94s10.68,0,10.68,0l16.9,26.2c.09.13.37.62.86,1.45.48.79.86,1.52,1.12,2.18V.93s10.42,0,10.42,0v46.2s-10.68,0-10.68,0l-16.9-26.4c-.09-.13-.38-.62-.86-1.45-.57-.97-.95-1.69-1.12-2.18v30.03s-10.42,0-10.42,0Z" style="fill:#1a1a1a; stroke-width:0px;"/><path d="M578.09,47.13V.93s10.68,0,10.68,0v46.2s-10.68,0-10.68,0Z" style="fill:#1a1a1a; stroke-width:0px;"/><path d="M606.66,13.07c0,1.28.81,2.39,2.44,3.33,1.63.95,4.47,1.86,8.51,2.74,5.15,1.05,8.9,2.7,11.25,4.95,2.35,2.24,3.53,5.28,3.53,9.11,0,4.18-1.54,7.7-4.62,10.56-3.08,2.86-7.33,4.29-12.74,4.29-10.82,0-17.58-4.99-20.26-14.98l9.04-4.36c.88,3.34,2.19,5.84,3.93,7.49,1.74,1.65,4.17,2.47,7.29,2.47,2.07,0,3.73-.45,4.98-1.35,1.25-.9,1.88-2.04,1.88-3.4,0-1.76-.84-3.16-2.51-4.19-1.67-1.03-4.29-1.9-7.85-2.61-9.68-1.85-14.52-6.47-14.52-13.86,0-4,1.52-7.22,4.55-9.64C604.61,1.21,608.64,0,613.65,0c4.53,0,8.25.99,11.15,2.97s5.17,5.01,6.8,9.11l-7.99,4.75c-1.81-5.41-5.19-8.12-10.17-8.12-1.98,0-3.61.4-4.88,1.19-1.28.79-1.91,1.85-1.91,3.17Z" style="fill:#1a1a1a; stroke-width:0px;"/><path d="M677.81.91l-16.83,17.43,17.36,28.77h-12.14s-12.68-21.12-12.68-21.12l-4.09,4.29v16.83s-10.69,0-10.69,0V.92s10.68,0,10.68,0v15.84c.27-.26.58-.63.96-1.09.37-.46.65-.78.82-.96l.86-.92,12.41-12.87h13.33Z" style="fill:#1a1a1a; stroke-width:0px;"/><path d="M682.43,47.11V.91s33.72,0,33.72,0v9.37s-23.03,0-23.03,0v8.38s21.19,0,21.19,0v9.11s-21.18,0-21.18,0v9.97s23.23,0,23.23,0v9.37s-33.92,0-33.92,0Z" style="fill:#1a1a1a; stroke-width:0px;"/><polygon points="42.31 58.97 51.93 42.3 57 51.09 70.28 51.09 51.93 19.29 22.38 70.47 81.48 70.47 74.83 58.97 42.31 58.97" style="fill:#1a1a1a; stroke-width:0px;"/><polygon points="63.64 .82 40.22 .82 0 70.47 13.29 70.47 46.86 12.32 57 12.32 57.18 12.63 90.57 70.47 103.86 70.47 63.64 .82" style="fill:#1a1a1a; stroke-width:0px;"/><path d="M141.37,63.39l1.83,1.3c-.82,1.38-1.75,2.4-2.78,3.06-1.03.66-2.35.99-3.95.99-2.21,0-4.04-.75-5.48-2.25-1.44-1.5-2.16-3.42-2.16-5.75s.75-4.23,2.24-5.74c1.5-1.51,3.33-2.27,5.5-2.27,1.52,0,2.87.36,4.03,1.09,1.16.73,2.01,1.69,2.55,2.89l-1.89,1.36c-1.11-2.13-2.69-3.19-4.73-3.19-1.47,0-2.71.56-3.74,1.67-1.03,1.11-1.54,2.51-1.54,4.18s.5,3.07,1.5,4.18c1,1.11,2.25,1.67,3.76,1.67,2.11,0,3.73-1.06,4.86-3.19Z" style="fill:#231f20; stroke-width:0px;"/><path d="M156.35,62.97c0,1.8-.58,3.22-1.75,4.24s-2.53,1.53-4.08,1.53-2.92-.51-4.08-1.53-1.75-2.43-1.75-4.24.58-3.18,1.75-4.21,2.53-1.55,4.08-1.55,2.92.52,4.08,1.55,1.75,2.44,1.75,4.21ZM148.01,65.64c.69.69,1.52,1.03,2.51,1.03s1.82-.34,2.51-1.03,1.03-1.58,1.03-2.66-.34-1.97-1.03-2.66-1.53-1.03-2.51-1.03-1.82.34-2.51,1.03c-.69.69-1.03,1.58-1.03,2.66s.34,1.97,1.03,2.66Z" style="fill:#231f20; stroke-width:0px;"/><path d="M174.04,60.44v7.99h-2.24v-7.22c0-1.35-.63-2.02-1.89-2.02-.7,0-1.28.27-1.73.8-.45.54-.67,1.35-.67,2.43v6.01h-2.24v-7.15c0-.63-.15-1.14-.46-1.52-.31-.38-.76-.57-1.34-.57-.7,0-1.29.28-1.76.84-.47.56-.7,1.36-.7,2.4v6.01h-2.24v-10.91h2.24v1.56c.34-.57.79-1.03,1.36-1.36.57-.34,1.19-.51,1.85-.51,1.54,0,2.54.65,2.99,1.94.75-1.29,1.91-1.94,3.48-1.94,1.04,0,1.86.29,2.46.88.6.59.9,1.37.9,2.35Z" style="fill:#231f20; stroke-width:0px;"/><path d="M176.86,72.92v-15.4h2.24v1.67c.35-.56.88-1.03,1.58-1.41.7-.38,1.47-.57,2.29-.57,1.42,0,2.62.52,3.59,1.57.97,1.05,1.45,2.45,1.45,4.19s-.5,3.12-1.5,4.18c-1,1.06-2.24,1.58-3.74,1.58-.79,0-1.51-.16-2.17-.48-.65-.32-1.15-.76-1.51-1.32v5.98h-2.24ZM184.74,60.31c-.65-.69-1.46-1.03-2.41-1.03s-1.76.34-2.41,1.03c-.65.69-.98,1.58-.98,2.66s.33,1.97.98,2.66c.65.69,1.46,1.03,2.41,1.03s1.76-.34,2.41-1.03c.65-.69.98-1.58.98-2.66s-.33-1.97-.98-2.66Z" style="fill:#231f20; stroke-width:0px;"/><path d="M190.23,64.54v-7.02h2.24v6.56c0,.85.21,1.5.63,1.94.42.44,1.02.66,1.79.66s1.48-.31,2.03-.92c.55-.62.83-1.39.83-2.33v-5.9h2.24v10.91h-2.24v-1.76c-.73,1.38-1.91,2.07-3.54,2.07-1.14,0-2.09-.36-2.85-1.08s-1.13-1.76-1.13-3.12Z" style="fill:#231f20; stroke-width:0px;"/><path d="M202.07,59.32v-1.8h1.76v-2.95h2.24v2.95h2.44v1.8h-2.44v5.79c0,1.07.5,1.61,1.5,1.61.22,0,.49-.04.81-.13l.2,1.89c-.48.18-1.03.26-1.63.26-2.08,0-3.12-1.08-3.12-3.23v-6.18h-1.76Z" style="fill:#231f20; stroke-width:0px;"/><path d="M220.7,63.46h-8.65c.03.97.35,1.76.97,2.39.62.62,1.4.93,2.35.93.82,0,1.48-.19,1.97-.58.49-.39.92-.95,1.29-1.68l1.74,1.03c-.53,1.07-1.2,1.87-2.01,2.4-.81.53-1.83.79-3.05.79-1.53,0-2.82-.54-3.89-1.62-1.07-1.08-1.61-2.46-1.61-4.15s.54-3.07,1.62-4.15c1.08-1.08,2.41-1.62,3.99-1.62s2.84.51,3.82,1.53c.98,1.02,1.46,2.33,1.46,3.93v.79ZM215.38,59.01c-.81,0-1.51.26-2.11.77-.6.51-1,1.17-1.21,1.96h6.51c-.09-.85-.44-1.52-1.07-2-.62-.48-1.33-.73-2.12-.73Z" style="fill:#231f20; stroke-width:0px;"/><path d="M229.35,57.32l-.37,2.13c-.28-.09-.56-.13-.86-.13-.79,0-1.44.32-1.96.96-.51.64-.77,1.44-.77,2.41v5.74h-2.24v-10.91h2.24v1.85c.66-1.44,1.71-2.16,3.15-2.16.22,0,.49.04.81.11Z" style="fill:#231f20; stroke-width:0px;"/><path d="M237.53,68.43v-15.4h10.12v2.11h-7.74v4.27h7.13v2.11h-7.13v4.8h7.81v2.11h-10.19Z" style="fill:#231f20; stroke-width:0px;"/><path d="M259.91,61.02v7.41h-2.24v-6.75c0-.75-.21-1.33-.63-1.76-.42-.43-1.02-.64-1.79-.64s-1.48.32-2.04.95c-.55.63-.82,1.45-.82,2.44v5.76h-2.24v-10.91h2.24v1.83c.4-.66.92-1.18,1.57-1.56.65-.38,1.37-.57,2.15-.57,1.11,0,2.03.34,2.74,1.01.71.67,1.07,1.61,1.07,2.79Z" style="fill:#231f20; stroke-width:0px;"/><path d="M262.88,68.56l2.18.62c-.12.26-.18.53-.18.79,0,.41.25.75.75,1.01.5.26,1.16.4,1.98.4,2.05,0,3.08-1.1,3.08-3.3v-1.72c-.29.56-.73,1.01-1.31,1.36-.58.35-1.25.53-2.01.53-1.48,0-2.73-.51-3.74-1.54s-1.52-2.35-1.52-3.98.51-2.97,1.52-3.99c1.01-1.02,2.24-1.53,3.67-1.53.73,0,1.4.17,2,.5s1.06.77,1.39,1.31v-1.5h2.24v10.25c0,1.75-.47,3.09-1.41,4.04s-2.24,1.42-3.92,1.42c-1.58,0-2.82-.31-3.7-.92s-1.32-1.45-1.32-2.51c0-.48.1-.9.29-1.23ZM269.9,60.16c-.61-.63-1.38-.95-2.32-.95s-1.71.32-2.32.95c-.61.63-.91,1.49-.91,2.57s.3,1.94.91,2.57c.61.63,1.38.95,2.32.95s1.71-.32,2.32-.95c.61-.63.91-1.49.91-2.57s-.3-1.94-.91-2.57Z" style="fill:#231f20; stroke-width:0px;"/><path d="M275.66,55.78v-2.53h2.55v2.53h-2.55ZM275.81,68.43v-10.91h2.24v10.91h-2.24Z" style="fill:#231f20; stroke-width:0px;"/><path d="M290.88,61.02v7.41h-2.24v-6.75c0-.75-.21-1.33-.63-1.76-.42-.43-1.02-.64-1.79-.64s-1.48.32-2.04.95c-.55.63-.82,1.45-.82,2.44v5.76h-2.24v-10.91h2.24v1.83c.4-.66.92-1.18,1.57-1.56.65-.38,1.37-.57,2.15-.57,1.11,0,2.03.34,2.74,1.01.71.67,1.07,1.61,1.07,2.79Z" style="fill:#231f20; stroke-width:0px;"/><path d="M304.06,63.46h-8.65c.03.97.35,1.76.97,2.39.62.62,1.4.93,2.35.93.82,0,1.48-.19,1.97-.58.49-.39.92-.95,1.29-1.68l1.74,1.03c-.53,1.07-1.2,1.87-2.01,2.4-.81.53-1.83.79-3.05.79-1.53,0-2.82-.54-3.89-1.62-1.07-1.08-1.61-2.46-1.61-4.15s.54-3.07,1.62-4.15c1.08-1.08,2.41-1.62,3.99-1.62s2.84.51,3.82,1.53c.98,1.02,1.46,2.33,1.46,3.93v.79ZM298.73,59.01c-.81,0-1.51.26-2.11.77-.6.51-1,1.17-1.21,1.96h6.51c-.09-.85-.44-1.52-1.07-2-.62-.48-1.33-.73-2.12-.73Z" style="fill:#231f20; stroke-width:0px;"/><path d="M316.82,63.46h-8.65c.03.97.35,1.76.97,2.39.62.62,1.4.93,2.35.93.82,0,1.48-.19,1.97-.58.49-.39.92-.95,1.29-1.68l1.74,1.03c-.53,1.07-1.2,1.87-2.01,2.4-.81.53-1.83.79-3.05.79-1.53,0-2.82-.54-3.89-1.62-1.07-1.08-1.61-2.46-1.61-4.15s.54-3.07,1.62-4.15c1.08-1.08,2.41-1.62,3.99-1.62s2.84.51,3.82,1.53c.98,1.02,1.46,2.33,1.46,3.93v.79ZM311.49,59.01c-.81,0-1.51.26-2.11.77-.6.51-1,1.17-1.21,1.96h6.51c-.09-.85-.44-1.52-1.07-2-.62-.48-1.33-.73-2.12-.73Z" style="fill:#231f20; stroke-width:0px;"/><path d="M325.46,57.32l-.37,2.13c-.28-.09-.56-.13-.86-.13-.79,0-1.44.32-1.96.96-.51.64-.77,1.44-.77,2.41v5.74h-2.24v-10.91h2.24v1.85c.66-1.44,1.71-2.16,3.15-2.16.22,0,.49.04.81.11Z" style="fill:#231f20; stroke-width:0px;"/><path d="M333.65,70.85v-18.7h2.2v18.7h-2.2Z" style="fill:#231f20; stroke-width:0px;"/><path d="M344.1,55.19v-2.16h11.88v2.16h-4.75v13.24h-2.38v-13.24h-4.75Z" style="fill:#231f20; stroke-width:0px;"/><path d="M365.7,63.46h-8.65c.03.97.35,1.76.97,2.39.62.62,1.4.93,2.35.93.82,0,1.48-.19,1.97-.58.49-.39.92-.95,1.29-1.68l1.74,1.03c-.53,1.07-1.2,1.87-2.01,2.4-.81.53-1.83.79-3.05.79-1.53,0-2.82-.54-3.89-1.62-1.07-1.08-1.61-2.46-1.61-4.15s.54-3.07,1.62-4.15c1.08-1.08,2.41-1.62,3.99-1.62s2.84.51,3.82,1.53c.98,1.02,1.46,2.33,1.46,3.93v.79ZM360.38,59.01c-.81,0-1.51.26-2.11.77-.6.51-1,1.17-1.21,1.96h6.51c-.09-.85-.44-1.52-1.07-2-.62-.48-1.33-.73-2.12-.73Z" style="fill:#231f20; stroke-width:0px;"/><path d="M376.5,64.47l1.74,1.12c-1.06,2.1-2.73,3.15-5.02,3.15-1.61,0-2.96-.54-4.04-1.62-1.08-1.08-1.62-2.46-1.62-4.15s.55-3.07,1.65-4.15c1.1-1.08,2.43-1.62,4-1.62,1.19,0,2.21.26,3.06.78.85.52,1.47,1.25,1.87,2.19l-1.78,1.19c-.69-1.39-1.73-2.09-3.12-2.09-.97,0-1.77.33-2.42,1-.65.67-.97,1.57-.97,2.7s.32,2.03.95,2.7c.63.67,1.44,1,2.44,1,.79,0,1.44-.18,1.94-.55.5-.37.94-.92,1.32-1.65Z" style="fill:#231f20; stroke-width:0px;"/><path d="M390.28,61.06v7.37h-2.24v-6.69c0-.79-.21-1.4-.64-1.83s-1.02-.64-1.78-.64c-.82,0-1.53.32-2.11.95s-.88,1.45-.88,2.44v5.76h-2.24v-15.4h2.24v6.31c.41-.66.95-1.18,1.62-1.56.67-.38,1.39-.57,2.17-.57,1.1,0,2.02.34,2.76,1.02.74.68,1.11,1.62,1.11,2.83Z" style="fill:#231f20; stroke-width:0px;"/><path d="M398.28,55.19v-2.16h11.88v2.16h-4.75v13.24h-2.38v-13.24h-4.75Z" style="fill:#231f20; stroke-width:0px;"/><path d="M411.92,55.78v-2.53h2.55v2.53h-2.55ZM412.08,68.43v-10.91h2.24v10.91h-2.24Z" style="fill:#231f20; stroke-width:0px;"/><path d="M427.15,61.02v7.41h-2.24v-6.75c0-.75-.21-1.33-.63-1.76-.42-.43-1.02-.64-1.79-.64s-1.48.32-2.04.95c-.55.63-.82,1.45-.82,2.44v5.76h-2.24v-10.91h2.24v1.83c.4-.66.92-1.18,1.57-1.56.65-.38,1.37-.57,2.15-.57,1.11,0,2.03.34,2.74,1.01.71.67,1.07,1.61,1.07,2.79Z" style="fill:#231f20; stroke-width:0px;"/><path d="M432.21,53.03v8.16l3.72-3.67h2.75l-3.85,3.78,4.51,7.13h-2.62l-3.5-5.54-1.01,1.01v4.53h-2.24v-15.4h2.24Z" style="fill:#231f20; stroke-width:0px;"/><path d="M450.33,63.46h-8.65c.03.97.35,1.76.97,2.39s1.4.93,2.35.93c.82,0,1.48-.19,1.97-.58.49-.39.92-.95,1.29-1.68l1.74,1.03c-.53,1.07-1.2,1.87-2.01,2.4-.81.53-1.83.79-3.05.79-1.53,0-2.82-.54-3.89-1.62-1.07-1.08-1.61-2.46-1.61-4.15s.54-3.07,1.62-4.15c1.08-1.08,2.41-1.62,3.99-1.62s2.84.51,3.82,1.53c.98,1.02,1.46,2.33,1.46,3.93v.79ZM445.01,59.01c-.81,0-1.51.26-2.11.77-.6.51-1,1.17-1.21,1.96h6.51c-.09-.85-.44-1.52-1.07-2-.62-.48-1.33-.73-2.12-.73Z" style="fill:#231f20; stroke-width:0px;"/><path d="M458.98,57.32l-.37,2.13c-.28-.09-.57-.13-.86-.13-.79,0-1.44.32-1.96.96-.51.64-.77,1.44-.77,2.41v5.74h-2.24v-10.91h2.24v1.85c.66-1.44,1.71-2.16,3.15-2.16.22,0,.49.04.81.11Z" style="fill:#231f20; stroke-width:0px;"/><path d="M470.62,63.46h-8.65c.03.97.35,1.76.97,2.39s1.4.93,2.35.93c.82,0,1.48-.19,1.97-.58.49-.39.92-.95,1.29-1.68l1.74,1.03c-.53,1.07-1.2,1.87-2.01,2.4-.81.53-1.83.79-3.05.79-1.53,0-2.82-.54-3.89-1.62-1.07-1.08-1.61-2.46-1.61-4.15s.54-3.07,1.62-4.15c1.08-1.08,2.41-1.62,3.99-1.62s2.84.51,3.82,1.53c.98,1.02,1.46,2.33,1.46,3.93v.79ZM465.29,59.01c-.81,0-1.51.26-2.11.77-.6.51-1,1.17-1.21,1.96h6.51c-.09-.85-.44-1.52-1.07-2-.62-.48-1.33-.73-2.12-.73Z" style="fill:#231f20; stroke-width:0px;"/><path d="M479.27,57.32l-.37,2.13c-.28-.09-.57-.13-.86-.13-.79,0-1.44.32-1.96.96-.51.64-.77,1.44-.77,2.41v5.74h-2.24v-10.91h2.24v1.85c.66-1.44,1.71-2.16,3.15-2.16.22,0,.49.04.81.11Z" style="fill:#231f20; stroke-width:0px;"/><path d="M487.45,70.85v-18.7h2.2v18.7h-2.2Z" style="fill:#231f20; stroke-width:0px;"/><path d="M499.28,68.43v-15.4h6.73c1.69,0,3.03.44,4.04,1.31,1,.87,1.51,2.07,1.51,3.6s-.5,2.72-1.51,3.6c-1,.87-2.35,1.31-4.04,1.31h-4.36v5.59h-2.38ZM501.66,55.14v5.59h4.27c1.06,0,1.86-.25,2.42-.74.56-.49.84-1.18.84-2.06s-.28-1.57-.84-2.06c-.56-.49-1.36-.74-2.42-.74h-4.27Z" style="fill:#231f20; stroke-width:0px;"/><path d="M524.17,62.97c0,1.8-.58,3.22-1.75,4.24s-2.53,1.53-4.08,1.53-2.92-.51-4.08-1.53-1.75-2.43-1.75-4.24.58-3.18,1.75-4.21,2.53-1.55,4.08-1.55,2.92.52,4.08,1.55,1.75,2.44,1.75,4.21ZM515.83,65.64c.69.69,1.53,1.03,2.51,1.03s1.82-.34,2.51-1.03,1.03-1.58,1.03-2.66-.34-1.97-1.03-2.66-1.53-1.03-2.51-1.03-1.82.34-2.51,1.03-1.03,1.58-1.03,2.66.34,1.97,1.03,2.66Z" style="fill:#231f20; stroke-width:0px;"/><path d="M533.54,57.52l2.2,8.01,1.98-8.01h2.24l-3.06,10.91h-2.29l-2.2-8.1-2.2,8.1h-2.29l-3.06-10.91h2.24l1.98,8.01,2.2-8.01h2.24Z" style="fill:#231f20; stroke-width:0px;"/><path d="M551.6,63.46h-8.65c.03.97.35,1.76.97,2.39.62.62,1.4.93,2.35.93.82,0,1.48-.19,1.97-.58.49-.39.92-.95,1.29-1.68l1.74,1.03c-.53,1.07-1.2,1.87-2.01,2.4-.81.53-1.83.79-3.05.79-1.53,0-2.82-.54-3.89-1.62-1.07-1.08-1.61-2.46-1.61-4.15s.54-3.07,1.62-4.15c1.08-1.08,2.41-1.62,3.99-1.62s2.84.51,3.82,1.53c.97,1.02,1.46,2.33,1.46,3.93v.79ZM546.28,59.01c-.81,0-1.51.26-2.11.77-.6.51-1,1.17-1.21,1.96h6.51c-.09-.85-.44-1.52-1.07-2-.62-.48-1.33-.73-2.12-.73Z" style="fill:#231f20; stroke-width:0px;"/><path d="M560.25,57.32l-.37,2.13c-.28-.09-.56-.13-.86-.13-.79,0-1.45.32-1.96.96-.51.64-.77,1.44-.77,2.41v5.74h-2.24v-10.91h2.24v1.85c.66-1.44,1.71-2.16,3.15-2.16.22,0,.49.04.81.11Z" style="fill:#231f20; stroke-width:0px;"/><path d="M571.88,63.46h-8.65c.03.97.35,1.76.97,2.39s1.4.93,2.35.93c.82,0,1.48-.19,1.97-.58.49-.39.92-.95,1.29-1.68l1.74,1.03c-.53,1.07-1.2,1.87-2.01,2.4-.81.53-1.83.79-3.05.79-1.53,0-2.82-.54-3.89-1.62-1.07-1.08-1.61-2.46-1.61-4.15s.54-3.07,1.62-4.15c1.08-1.08,2.41-1.62,3.99-1.62s2.84.51,3.82,1.53c.98,1.02,1.46,2.33,1.46,3.93v.79ZM566.56,59.01c-.81,0-1.51.26-2.11.77-.6.51-1,1.17-1.21,1.96h6.51c-.09-.85-.44-1.52-1.07-2-.62-.48-1.33-.73-2.12-.73Z" style="fill:#231f20; stroke-width:0px;"/><path d="M584.91,53.03v15.4h-2.24v-1.76c-.79,1.38-2,2.07-3.61,2.07-1.53,0-2.79-.53-3.79-1.59s-1.51-2.45-1.51-4.17.52-3.07,1.57-4.15c1.05-1.08,2.28-1.62,3.68-1.62,1.76,0,2.98.65,3.65,1.96v-6.14h2.24ZM577.02,65.64c.65.69,1.46,1.03,2.41,1.03s1.76-.34,2.41-1.03c.65-.69.98-1.58.98-2.66s-.33-1.97-.98-2.66c-.65-.69-1.46-1.03-2.41-1.03s-1.76.34-2.41,1.03-.98,1.58-.98,2.66.33,1.97.98,2.66Z" style="fill:#231f20; stroke-width:0px;"/><path d="M594.06,68.43v-15.4h2.24v6.14c.4-.6.93-1.08,1.61-1.43.67-.35,1.41-.53,2.2-.53,1.47,0,2.68.53,3.65,1.59.97,1.06,1.45,2.45,1.45,4.17s-.5,3.11-1.5,4.17c-1,1.06-2.24,1.59-3.72,1.59-.84,0-1.58-.18-2.23-.54-.65-.36-1.14-.82-1.46-1.38v1.61h-2.24ZM597.13,65.64c.65.69,1.46,1.03,2.41,1.03s1.76-.34,2.41-1.03.98-1.58.98-2.66-.33-1.97-.98-2.66-1.46-1.03-2.41-1.03-1.76.34-2.41,1.03-.98,1.58-.98,2.66.33,1.97.98,2.66Z" style="fill:#231f20; stroke-width:0px;"/><path d="M607.24,72.83l.35-2.05c.35.15.68.22.99.22s.55-.08.74-.23c.18-.15.38-.47.58-.93l.51-1.34-4.44-10.98h2.57l3.08,7.88,3.06-7.88h2.49l-5.28,13.11c-.65,1.63-1.67,2.44-3.06,2.44-.62,0-1.14-.08-1.58-.24Z" style="fill:#231f20; stroke-width:0px;"/><path d="M637.02,63.39l1.83,1.3c-.82,1.38-1.75,2.4-2.78,3.06-1.03.66-2.35.99-3.95.99-2.21,0-4.04-.75-5.48-2.25-1.44-1.5-2.16-3.42-2.16-5.75s.75-4.23,2.24-5.74c1.5-1.51,3.33-2.27,5.5-2.27,1.52,0,2.87.36,4.03,1.09,1.16.73,2.01,1.69,2.55,2.89l-1.89,1.36c-1.12-2.13-2.69-3.19-4.73-3.19-1.47,0-2.71.56-3.74,1.67-1.03,1.11-1.54,2.51-1.54,4.18s.5,3.07,1.5,4.18c1,1.11,2.25,1.67,3.76,1.67,2.11,0,3.73-1.06,4.86-3.19Z" style="fill:#231f20; stroke-width:0px;"/><path d="M641.56,64.54v-7.02h2.24v6.56c0,.85.21,1.5.63,1.94.42.44,1.02.66,1.79.66s1.49-.31,2.04-.92c.55-.62.83-1.39.83-2.33v-5.9h2.24v10.91h-2.24v-1.76c-.73,1.38-1.91,2.07-3.54,2.07-1.14,0-2.09-.36-2.85-1.08-.75-.72-1.13-1.76-1.13-3.12Z" style="fill:#231f20; stroke-width:0px;"/><path d="M660.5,57.32l-.37,2.13c-.28-.09-.56-.13-.86-.13-.79,0-1.45.32-1.96.96-.51.64-.77,1.44-.77,2.41v5.74h-2.24v-10.91h2.24v1.85c.66-1.44,1.71-2.16,3.15-2.16.22,0,.49.04.81.11Z" style="fill:#231f20; stroke-width:0px;"/><path d="M662.19,55.78v-2.53h2.55v2.53h-2.55ZM662.35,68.43v-10.91h2.24v10.91h-2.24Z" style="fill:#231f20; stroke-width:0px;"/><path d="M678.52,62.97c0,1.8-.58,3.22-1.75,4.24s-2.53,1.53-4.08,1.53-2.91-.51-4.08-1.53c-1.17-1.02-1.75-2.43-1.75-4.24s.58-3.18,1.75-4.21c1.17-1.03,2.53-1.55,4.08-1.55s2.91.52,4.08,1.55,1.75,2.44,1.75,4.21ZM670.18,65.64c.69.69,1.53,1.03,2.51,1.03s1.82-.34,2.51-1.03,1.04-1.58,1.04-2.66-.35-1.97-1.04-2.66-1.53-1.03-2.51-1.03-1.82.34-2.51,1.03-1.03,1.58-1.03,2.66.34,1.97,1.03,2.66Z" style="fill:#231f20; stroke-width:0px;"/><path d="M682.7,60.16c0,.46.22.81.67,1.08.45.26,1.13.48,2.06.66,1.26.26,2.19.65,2.78,1.17.59.51.89,1.22.89,2.13,0,1.01-.38,1.86-1.13,2.53-.76.67-1.79,1.01-3.09,1.01-1.22,0-2.24-.3-3.06-.91-.82-.61-1.41-1.38-1.76-2.32l1.83-1.14c.6,1.64,1.61,2.46,3.01,2.46.59,0,1.08-.14,1.47-.43.4-.29.59-.66.59-1.13s-.2-.8-.59-1.04c-.4-.24-1.06-.46-1.98-.65-2.48-.48-3.72-1.58-3.72-3.3,0-.94.38-1.68,1.14-2.23.76-.55,1.68-.83,2.75-.83,1.13,0,2.04.22,2.74.67s1.24,1.13,1.64,2.04l-1.65.97c-.5-1.31-1.39-1.96-2.68-1.96-.54,0-1,.11-1.36.34-.37.23-.55.52-.55.89Z" style="fill:#231f20; stroke-width:0px;"/><path d="M691.36,55.78v-2.53h2.55v2.53h-2.55ZM691.52,68.43v-10.91h2.24v10.91h-2.24Z" style="fill:#231f20; stroke-width:0px;"/><path d="M695.87,59.32v-1.8h1.76v-2.95h2.24v2.95h2.44v1.8h-2.44v5.79c0,1.07.5,1.61,1.5,1.61.22,0,.49-.04.81-.13l.2,1.89c-.48.18-1.03.26-1.63.26-2.08,0-3.12-1.08-3.12-3.23v-6.18h-1.76Z" style="fill:#231f20; stroke-width:0px;"/><path d="M704.98,72.83l.35-2.05c.35.15.68.22.99.22s.55-.08.74-.23c.18-.15.38-.47.58-.93l.51-1.34-4.44-10.98h2.57l3.08,7.88,3.06-7.88h2.49l-5.28,13.11c-.65,1.63-1.67,2.44-3.06,2.44-.62,0-1.14-.08-1.58-.24Z" style="fill:#231f20; stroke-width:0px;"/></g></svg>