<?xml version="1.0" encoding="UTF-8"?>
<svg id="Layer_1" data-name="Layer 1" xmlns="http://www.w3.org/2000/svg" viewBox="0 0 694.8 149.19">
  <g id="Group_72" data-name="Group 72">
    <path id="Path_385" data-name="Path 385" d="M205.18,116.89h9.06v29.51h-15.8c-24.88,0-40.2-13.24-40.2-35.09v-35.79c0-13.25,9.76-21.38,29.05-23.7h-49.49v-25.33h20.45V0h35.55v26.49h20.45v25.33c-15.57,0-20.45,5.81-20.45,23.7v29.05c0,8.37,3.49,12.31,11.39,12.31"/>
    <path id="Path_386" data-name="Path 386" d="M280.95,116.89h9.06v29.51h-15.8c-24.88,0-40.2-13.24-40.2-35.09v-35.79c0-13.25,9.76-21.38,29.05-23.7h-49.51v-25.33h20.45V0h35.56v26.49h20.45v25.33c-15.57,0-20.45,5.81-20.45,23.7v29.05c0,8.37,3.49,12.31,11.39,12.31"/>
    <path id="Path_387" data-name="Path 387" d="M351.34,49.02c-9.06,0-16.03,5.11-16.03,11.39h-33.47c0-20.45,21.38-36.72,50.89-36.72s51.12,14.17,51.12,39.5v83.19h-35.55v-28.56c-2.09,19.75-14.87,31.37-32.53,31.37-23.93,0-42.06-16.27-42.06-37.64,0-24.4,20.68-37.65,49.27-37.65h8.37c10.92,0,16.96-4.88,16.96-13.01,0-7.44-7.2-11.85-16.96-11.85M347.16,126.65c11.85,0,21.15-8.13,21.15-18.58v-15.82c-4.89,2.21-10.2,3.33-15.57,3.25h-5.58c-10.92,0-17.89,6.51-17.89,15.8s6.97,15.34,17.89,15.34"/>
    <rect id="Rectangle_172" data-name="Rectangle 172" x="416.64" width="35.55" height="146.4"/>
    <path id="Path_388" data-name="Path 388" d="M462.19,86.44c0-37.65,23.24-62.74,58.33-62.74s58.57,25.1,58.57,62.74-23.24,62.74-58.57,62.74-58.33-25.1-58.33-62.74M520.52,119.68c13.71,0,23.01-13.48,23.01-33.23s-9.3-33.23-23.01-33.23-22.77,13.48-22.77,33.23,9.3,33.23,22.77,33.23"/>
    <path id="Path_389" data-name="Path 389" d="M624.62,26.49v36.25c1.86-22.54,16.27-39.05,35.09-39.05,19.98,0,35.09,19.06,35.09,44.4v78.3h-35.55v-78.31c0-10.92-5.35-18.58-17.43-18.58-10.46,0-17.2,6.28-17.2,18.58v78.31h-35.56V26.49h35.55Z"/>
    <path id="Path_390" data-name="Path 390" d="M108.71,0h-60.11L0,145.22h39.21l1.18-4.22c7.84-28.53,31.01-50.27,59.98-56.28l.77-.15,7.33,26.14,9.63,34.51h38.98L108.71,0ZM56.79,82.35l1.2-4.28L78.66,4.35l20.66,73.73,1.2,4.28h-43.73Z"/>
  </g>
</svg>